<svg xmlns="http://www.w3.org/2000/svg" width="300" height="300" viewBox="0 0 300 300">
  <g stroke="#f4a259" stroke-width="1" opacity="0.13">
    <line x1="40" y1="50" x2="110" y2="30" />
    <line x1="190" y1="60" x2="150" y2="130" />
    <line x1="30" y1="220" x2="90" y2="190" />
    <line x1="210" y1="180" x2="280" y2="150" />
  </g>
  <g fill="#b45f18">
    <circle cx="40" cy="50" r="2.6" opacity="0.28" />
    <circle cx="110" cy="30" r="1.6" opacity="0.2" />
    <circle cx="190" cy="60" r="3" opacity="0.3" />
    <circle cx="260" cy="40" r="1.8" opacity="0.22" />
    <circle cx="280" cy="150" r="2.2" opacity="0.26" />
    <circle cx="210" cy="180" r="1.6" opacity="0.2" />
    <circle cx="150" cy="130" r="2.8" opacity="0.3" />
    <circle cx="60" cy="120" r="1.4" opacity="0.18" />
    <circle cx="30" cy="220" r="2.4" opacity="0.26" />
    <circle cx="120" cy="250" r="1.8" opacity="0.22" />
    <circle cx="230" cy="270" r="2.2" opacity="0.26" />
    <circle cx="90" cy="190" r="1.5" opacity="0.2" />
  </g>
  <g fill="#f4a259">
    <path d="M250 103 Q250 110 257 110 Q250 110 250 117 Q250 110 243 110 Q250 110 250 103 Z" opacity="0.5" />
    <path d="M100 95 Q100 100 105 100 Q100 100 100 105 Q100 100 95 100 Q100 100 100 95 Z" opacity="0.45" />
  </g>
</svg>
